<svg width="17" height="17" viewBox="0 0 17 17" fill="none" xmlns="http://www.w3.org/2000/svg">
<g clip-path="url(#clip0_212_1407)">
<path d="M11.347 2.95178H11.348C12.0374 2.94978 12.7131 3.13315 13.3041 3.48108L13.5521 3.64026C14.1177 4.03469 14.5651 4.57348 14.849 5.19788L14.9603 5.47034C15.2305 6.21059 15.266 7.01685 15.0619 7.77795C14.8578 8.53892 14.4239 9.21854 13.8197 9.72424L13.6156 9.89514L13.8578 10.0045C14.7264 10.3976 15.4892 10.9877 16.0863 11.7262L16.3314 12.0514L16.3324 12.0524C16.3769 12.1147 16.4091 12.1857 16.4261 12.2604C16.4346 12.2976 16.4388 12.3356 16.4398 12.3737L16.432 12.4879C16.4254 12.5258 16.4146 12.5626 16.4008 12.5983L16.35 12.6998C16.3293 12.7321 16.3051 12.7622 16.2787 12.7897L16.1918 12.8639L16.1898 12.8649C16.0924 12.9345 15.9755 12.9716 15.8558 12.9713L15.7855 12.9674C15.7394 12.9616 15.6943 12.9497 15.6508 12.9332L15.5863 12.9049C15.5033 12.8617 15.4315 12.7996 15.3773 12.7233H15.3783C14.98 12.1581 14.4679 11.6834 13.8763 11.3297L13.6176 11.1862C13.0041 10.8676 12.3317 10.6814 11.6439 10.6393L11.348 10.6305L11.2328 10.6188C11.1581 10.6038 11.0872 10.5741 11.0238 10.5319L10.9349 10.4596C10.8254 10.3501 10.7631 10.2014 10.7631 10.0465C10.7631 9.93033 10.7982 9.81755 10.8617 9.72229L10.9349 9.63342C11.0445 9.52387 11.1931 9.46155 11.348 9.46155C11.9677 9.46147 12.5652 9.24641 13.0404 8.85706L13.2367 8.67932C13.7374 8.17846 14.0189 7.49886 14.0189 6.79065C14.0188 6.17088 13.8029 5.57348 13.4135 5.09827L13.2367 4.90198C12.7984 4.46371 12.2231 4.19414 11.6117 4.13342L11.348 4.11975C11.1648 4.11941 10.9821 4.13861 10.8031 4.17639L10.6254 4.22034L10.6234 4.22131C10.5494 4.24332 10.4717 4.25002 10.3949 4.24182C10.3564 4.2377 10.3183 4.22993 10.2816 4.21838L10.1752 4.17249C10.1073 4.13511 10.0475 4.08472 9.99939 4.02405C9.97541 3.99383 9.95439 3.96153 9.93689 3.92737L9.8949 3.81897C9.87395 3.74443 9.86787 3.66632 9.87732 3.58948C9.88205 3.55118 9.89062 3.51362 9.90271 3.47717L9.94958 3.3717C9.96885 3.33797 9.99154 3.3061 10.017 3.27698L10.101 3.19788C10.1316 3.17433 10.1641 3.15334 10.1986 3.13635L10.307 3.09631L10.3099 3.09534C10.563 3.02328 10.8233 2.97842 11.0853 2.96057L11.347 2.95178ZM6.24548 2.9469C6.9346 2.9469 7.60945 3.13222 8.19958 3.48108L8.44666 3.64026C9.01115 4.03526 9.45805 4.57388 9.74158 5.19788L9.85291 5.47131C10.0888 6.11846 10.1453 6.81523 10.0199 7.48889L9.95544 7.77698C9.75229 8.5377 9.3197 9.21736 8.71716 9.72424L8.51501 9.89514L8.75623 10.0045C9.62481 10.3976 10.3877 10.9877 10.9847 11.7262L11.2299 12.0514L11.2347 12.0582C11.2591 12.0894 11.2807 12.1226 11.2982 12.1578L11.3392 12.2692C11.3493 12.3073 11.3556 12.3462 11.3578 12.3854L11.3519 12.5035C11.3461 12.5425 11.337 12.5809 11.3236 12.6178L11.2719 12.7242C11.2304 12.7916 11.1754 12.8496 11.1107 12.8951C11.0784 12.9179 11.0442 12.938 11.0082 12.9537L10.8949 12.9889C10.8562 12.9971 10.817 13.0014 10.7777 13.0016L10.6605 12.9908C10.6217 12.9831 10.5836 12.971 10.5472 12.9557L10.4437 12.899C10.4112 12.8767 10.3811 12.8512 10.3539 12.8229L10.2806 12.7301L10.2758 12.7233L10.099 12.4869C9.73076 12.0242 9.28223 11.6315 8.77478 11.3278L8.51697 11.1832C7.81548 10.8186 7.03606 10.6285 6.24548 10.6285C5.55388 10.6286 4.8713 10.7747 4.24158 11.0553L3.97498 11.1832C3.36109 11.5023 2.8224 11.9473 2.39294 12.4869L2.21521 12.7233V12.7242C2.16181 12.8009 2.09007 12.8637 2.0072 12.9069C1.94521 12.9391 1.87794 12.9592 1.80896 12.9674L1.73865 12.9713H1.73767C1.64772 12.9715 1.55953 12.9507 1.47986 12.9108L1.40369 12.8649H1.40271C1.30799 12.798 1.23595 12.7048 1.1947 12.5983L1.16443 12.4869C1.14465 12.3728 1.15945 12.2565 1.20544 12.152L1.26208 12.0514C1.88901 11.1604 2.74315 10.4537 3.73572 10.0045L3.97693 9.89514L3.7738 9.72424C3.24674 9.28077 2.85043 8.70477 2.62341 8.05823L2.5365 7.77698C2.35882 7.11137 2.36352 6.41157 2.54822 5.75159L2.63904 5.47131C2.87516 4.82385 3.27994 4.25291 3.80994 3.81799L4.04431 3.64026C4.68947 3.18881 5.45806 2.94696 6.24548 2.9469ZM6.76697 4.17151C6.31355 4.08132 5.84546 4.11031 5.40857 4.25452L5.224 4.32385C4.79699 4.50073 4.42411 4.7846 4.14099 5.14709L4.02478 5.30725C3.73144 5.74634 3.57466 6.26259 3.57458 6.79065C3.57458 7.41062 3.79046 8.00867 4.18005 8.48401L4.35681 8.67932C4.85764 9.18015 5.53721 9.46147 6.24548 9.46155C6.70776 9.46155 7.16154 9.34249 7.56189 9.11584L7.72986 9.01135C8.11403 8.75458 8.42433 8.40348 8.63123 7.9928L8.71326 7.81311C8.89008 7.38622 8.9529 6.92186 8.89685 6.46545L8.8656 6.27014C8.77545 5.8169 8.56915 5.39585 8.26892 5.04749L8.13416 4.90198C7.7607 4.52865 7.28487 4.27455 6.76697 4.17151Z" fill="#4CAF4F" stroke="#4CAF4F" stroke-width="0.333867"/>
</g>
<defs>
<clipPath id="clip0_212_1407">
<rect width="16.0256" height="16.0256" fill="white" transform="translate(0.737061 0.0301514)"/>
</clipPath>
</defs>
</svg>
