<svg width="17" height="17" viewBox="0 0 17 17" fill="none" xmlns="http://www.w3.org/2000/svg">
<path d="M4.14453 3.05579H13.6592C14.1433 3.05579 14.6102 3.22429 14.9814 3.52844L15.1348 3.66711C15.5261 4.05844 15.7461 4.5893 15.7461 5.1427V11.6525C15.7461 12.1369 15.5778 12.6043 15.2734 12.9757L15.1348 13.1281C14.7434 13.5194 14.2126 13.7394 13.6592 13.7394H4.14453C3.66038 13.7394 3.19355 13.5709 2.82227 13.2667L2.66895 13.1281C2.27763 12.7367 2.05762 12.2059 2.05762 11.6525V5.1427C2.05762 4.65855 2.22614 4.19171 2.53027 3.82043L2.66895 3.66711C3.01125 3.32481 3.45998 3.11307 3.9375 3.06555L4.14453 3.05579ZM2.72559 11.6525C2.72559 12.0288 2.87453 12.3903 3.14062 12.6564C3.40673 12.9225 3.76821 13.0714 4.14453 13.0714H13.6592C14.0355 13.0714 14.397 12.9225 14.6631 12.6564C14.9292 12.3903 15.0781 12.0288 15.0781 11.6525V6.72864H2.72559V11.6525ZM11.4062 10.0665H12.9082C12.9747 10.0665 13.0392 10.0867 13.0938 10.1232L13.1445 10.1652C13.2069 10.2277 13.2421 10.3122 13.2422 10.4005C13.2422 10.467 13.222 10.5316 13.1855 10.5861L13.1445 10.6368C13.0819 10.6995 12.9968 10.7345 12.9082 10.7345H11.4062C11.3399 10.7345 11.2751 10.7151 11.2207 10.6788L11.1699 10.6368C11.1073 10.5742 11.0723 10.4891 11.0723 10.4005C11.0723 10.3343 11.0918 10.2702 11.1279 10.2159L11.1699 10.1652C11.2325 10.1025 11.3177 10.0665 11.4062 10.0665ZM4.14453 3.72375C3.76821 3.72375 3.40673 3.87269 3.14062 4.13879C2.87452 4.4049 2.72559 4.76638 2.72559 5.1427V6.06067H15.0781V5.1427C15.0781 4.76639 14.9292 4.40489 14.6631 4.13879C14.397 3.87269 14.0355 3.72375 13.6592 3.72375H4.14453Z" fill="#4CAF4F" stroke="#4CAF4F" stroke-width="0.333867"/>
</svg>
