<svg width="17" height="17" viewBox="0 0 17 17" fill="none" xmlns="http://www.w3.org/2000/svg">
<mask id="path-1-inside-1_212_1413" fill="white">
<path d="M10.3414 7.92429C10.261 7.92429 10.1863 7.90219 10.12 7.86663V7.86758C10.12 7.99406 10.0708 8.11284 9.98165 8.2018C9.89245 8.291 9.77376 8.34016 9.64742 8.34016C9.56586 8.34016 9.49027 8.31751 9.42324 8.28101C9.41648 8.39672 9.37023 8.50487 9.28772 8.58747C9.19852 8.67667 9.07983 8.72583 8.95341 8.72583C8.70225 8.72583 8.49828 8.5284 8.48358 8.28093C8.40587 8.32294 8.31801 8.34496 8.22739 8.33914C7.98031 8.32294 7.78682 8.10946 7.78682 7.85302V5.72741L7.54478 6.14674C7.45259 6.30712 7.28003 6.4067 7.09423 6.4067C7.00369 6.4067 6.91426 6.38295 6.83505 6.33756C6.73641 6.28038 6.66586 6.18858 6.63651 6.07877C6.60702 5.96888 6.62228 5.85396 6.6793 5.75547C6.67938 5.75547 7.47123 4.38422 7.51954 4.29999C7.52528 4.28732 7.54164 4.25059 7.55557 4.21928C7.56886 4.18939 7.58027 4.15872 7.5912 4.12788C7.83 3.45371 8.42129 3.03493 9.1344 3.03493C10.0604 3.03493 10.8138 3.85187 10.8138 4.85604L10.8139 7.45163C10.8139 7.57796 10.7648 7.69666 10.6757 7.78594C10.5865 7.87514 10.4678 7.9243 10.3413 7.9243L10.3414 7.92429ZM9.13441 3.28605C8.52165 3.28605 8.03326 3.63215 7.82789 4.21186C7.81476 4.24867 7.80107 4.28549 7.7851 4.32136C7.73877 4.42526 7.73877 4.42526 7.72571 4.44021L7.72398 4.43871C7.65933 4.56071 7.46724 4.89335 6.89674 5.88115C6.8733 5.92166 6.86708 5.9687 6.87904 6.01369C6.89115 6.05868 6.92018 6.0966 6.96037 6.1198C7.08512 6.19146 7.25597 6.14521 7.32708 6.02132L7.80367 5.19619C7.83214 5.14702 7.88972 5.12288 7.94494 5.13782C7.99984 5.15253 8.03799 5.20232 8.03799 5.25911V7.8531C8.03799 7.97549 8.13033 8.08112 8.24385 8.08859C8.30929 8.09206 8.37033 8.07011 8.41619 8.02433C8.45788 7.98264 8.48084 7.92711 8.48084 7.86772V6.17122C8.48084 6.10185 8.53708 6.0456 8.60646 6.0456C8.67584 6.0456 8.73208 6.10177 8.73208 6.17122L8.732 8.25334C8.732 8.37541 8.83134 8.47476 8.95342 8.47476C9.01273 8.47476 9.06842 8.45179 9.11019 8.4101C9.15188 8.36833 9.17484 8.31265 9.17484 8.25334V6.17122C9.17484 6.10184 9.23101 6.0456 9.30046 6.0456C9.36984 6.0456 9.42608 6.10176 9.42608 6.17122L9.426 7.84821V7.86772C9.426 7.98972 9.52535 8.08906 9.6475 8.08906C9.70673 8.08906 9.76226 8.06601 9.80427 8.02416C9.84596 7.98255 9.86892 7.92702 9.86892 7.86763V6.17113C9.86892 6.10176 9.92509 6.04551 9.99454 6.04551C10.0639 6.04551 10.1202 6.10168 10.1202 6.17113L10.12 7.45169C10.12 7.57385 10.2193 7.67319 10.3413 7.67319C10.4007 7.67319 10.4563 7.65015 10.498 7.60854C10.5398 7.56669 10.5627 7.511 10.5627 7.45169L10.5628 4.8561C10.5628 3.99047 9.92202 3.28607 9.1344 3.28607L9.13441 3.28605Z"/>
</mask>
<path d="M10.3414 7.92429C10.261 7.92429 10.1863 7.90219 10.12 7.86663V7.86758C10.12 7.99406 10.0708 8.11284 9.98165 8.2018C9.89245 8.291 9.77376 8.34016 9.64742 8.34016C9.56586 8.34016 9.49027 8.31751 9.42324 8.28101C9.41648 8.39672 9.37023 8.50487 9.28772 8.58747C9.19852 8.67667 9.07983 8.72583 8.95341 8.72583C8.70225 8.72583 8.49828 8.5284 8.48358 8.28093C8.40587 8.32294 8.31801 8.34496 8.22739 8.33914C7.98031 8.32294 7.78682 8.10946 7.78682 7.85302V5.72741L7.54478 6.14674C7.45259 6.30712 7.28003 6.4067 7.09423 6.4067C7.00369 6.4067 6.91426 6.38295 6.83505 6.33756C6.73641 6.28038 6.66586 6.18858 6.63651 6.07877C6.60702 5.96888 6.62228 5.85396 6.6793 5.75547C6.67938 5.75547 7.47123 4.38422 7.51954 4.29999C7.52528 4.28732 7.54164 4.25059 7.55557 4.21928C7.56886 4.18939 7.58027 4.15872 7.5912 4.12788C7.83 3.45371 8.42129 3.03493 9.1344 3.03493C10.0604 3.03493 10.8138 3.85187 10.8138 4.85604L10.8139 7.45163C10.8139 7.57796 10.7648 7.69666 10.6757 7.78594C10.5865 7.87514 10.4678 7.9243 10.3413 7.9243L10.3414 7.92429ZM9.13441 3.28605C8.52165 3.28605 8.03326 3.63215 7.82789 4.21186C7.81476 4.24867 7.80107 4.28549 7.7851 4.32136C7.73877 4.42526 7.73877 4.42526 7.72571 4.44021L7.72398 4.43871C7.65933 4.56071 7.46724 4.89335 6.89674 5.88115C6.8733 5.92166 6.86708 5.9687 6.87904 6.01369C6.89115 6.05868 6.92018 6.0966 6.96037 6.1198C7.08512 6.19146 7.25597 6.14521 7.32708 6.02132L7.80367 5.19619C7.83214 5.14702 7.88972 5.12288 7.94494 5.13782C7.99984 5.15253 8.03799 5.20232 8.03799 5.25911V7.8531C8.03799 7.97549 8.13033 8.08112 8.24385 8.08859C8.30929 8.09206 8.37033 8.07011 8.41619 8.02433C8.45788 7.98264 8.48084 7.92711 8.48084 7.86772V6.17122C8.48084 6.10185 8.53708 6.0456 8.60646 6.0456C8.67584 6.0456 8.73208 6.10177 8.73208 6.17122L8.732 8.25334C8.732 8.37541 8.83134 8.47476 8.95342 8.47476C9.01273 8.47476 9.06842 8.45179 9.11019 8.4101C9.15188 8.36833 9.17484 8.31265 9.17484 8.25334V6.17122C9.17484 6.10184 9.23101 6.0456 9.30046 6.0456C9.36984 6.0456 9.42608 6.10176 9.42608 6.17122L9.426 7.84821V7.86772C9.426 7.98972 9.52535 8.08906 9.6475 8.08906C9.70673 8.08906 9.76226 8.06601 9.80427 8.02416C9.84596 7.98255 9.86892 7.92702 9.86892 7.86763V6.17113C9.86892 6.10176 9.92509 6.04551 9.99454 6.04551C10.0639 6.04551 10.1202 6.10168 10.1202 6.17113L10.12 7.45169C10.12 7.57385 10.2193 7.67319 10.3413 7.67319C10.4007 7.67319 10.4563 7.65015 10.498 7.60854C10.5398 7.56669 10.5627 7.511 10.5627 7.45169L10.5628 4.8561C10.5628 3.99047 9.92202 3.28607 9.1344 3.28607L9.13441 3.28605Z" fill="#4CAF4F"/>
<path d="M10.3414 7.92429V7.47914H11.9141L10.5747 8.30341L10.3414 7.92429ZM10.12 7.86663H9.67485V7.12283L10.3304 7.47432L10.12 7.86663ZM9.98165 8.2018L9.66688 7.88703L9.66729 7.88662L9.98165 8.2018ZM9.42324 8.28101L8.97885 8.25503L9.01981 7.55443L9.63614 7.89007L9.42324 8.28101ZM9.28772 8.58747L9.60265 8.90208L9.60249 8.90224L9.28772 8.58747ZM8.48358 8.28093L8.27193 7.88932L8.88653 7.55714L8.92796 8.25454L8.48358 8.28093ZM8.22739 8.33914L8.19885 8.78338L8.19826 8.78334L8.22739 8.33914ZM7.78682 5.72741L7.40128 5.50488L8.23198 4.06574V5.72741H7.78682ZM7.54478 6.14674L7.15884 5.9249L7.15924 5.9242L7.54478 6.14674ZM6.83505 6.33756L6.61373 6.72381L6.61178 6.72268L6.83505 6.33756ZM6.63651 6.07877L7.06645 5.96336L7.06658 5.96386L6.63651 6.07877ZM6.6793 5.75547L6.29407 5.53241L6.42267 5.31032H6.6793V5.75547ZM7.51954 4.29999L7.92497 4.48381L7.91623 4.50309L7.9057 4.52145L7.51954 4.29999ZM7.55557 4.21928L7.14882 4.0384L7.14882 4.03839L7.55557 4.21928ZM7.5912 4.12788L8.01081 4.27651L8.01077 4.27663L7.5912 4.12788ZM10.8138 4.85604L10.3687 4.85605V4.85604H10.8138ZM10.8139 7.45163L11.2591 7.45162V7.45163H10.8139ZM10.6757 7.78594L10.9908 8.10042L10.9905 8.10071L10.6757 7.78594ZM10.3413 7.9243V8.36946H8.76858L10.108 7.54518L10.3413 7.9243ZM9.13441 3.28605V2.84089H9.72456L9.56244 3.40834L9.13441 3.28605ZM7.82789 4.21186L8.24749 4.36051L8.24715 4.36147L7.82789 4.21186ZM7.7851 4.32136L8.19178 4.5024L8.19167 4.50264L7.7851 4.32136ZM7.72571 4.44021L8.06094 4.7331L7.76972 5.0664L7.43475 4.77711L7.72571 4.44021ZM7.72398 4.43871L7.33065 4.23026L7.59221 3.73672L8.01495 4.10181L7.72398 4.43871ZM6.89674 5.88115L7.28222 6.10379L7.28203 6.10411L6.89674 5.88115ZM6.87904 6.01369L6.44919 6.12942L6.44882 6.12803L6.87904 6.01369ZM6.96037 6.1198L6.73865 6.50581L6.73781 6.50533L6.96037 6.1198ZM7.32708 6.02132L6.94099 5.79973L6.9416 5.79867L7.32708 6.02132ZM7.80367 5.19619L7.41819 4.97354L7.41846 4.97307L7.80367 5.19619ZM7.94494 5.13782L7.82974 5.56782L7.82864 5.56752L7.94494 5.13782ZM8.24385 8.08859L8.22033 8.53317L8.21461 8.53279L8.24385 8.08859ZM8.41619 8.02433L8.73096 8.3391L8.73068 8.33938L8.41619 8.02433ZM8.73208 6.17122H9.17723V6.17124L8.73208 6.17122ZM8.732 8.25334H8.28684V8.25332L8.732 8.25334ZM9.11019 8.4101L9.42526 8.72458L9.42466 8.72518L9.11019 8.4101ZM9.42608 6.17122H9.87123V6.17124L9.42608 6.17122ZM9.426 7.84821H8.98084V7.84819L9.426 7.84821ZM9.80427 8.02416L10.1187 8.33923L10.1185 8.33952L9.80427 8.02416ZM10.1202 6.17113H10.5653V6.17119L10.1202 6.17113ZM10.12 7.45169H9.67485L9.67485 7.45164L10.12 7.45169ZM10.498 7.60854L10.8127 7.92331L10.8124 7.92361L10.498 7.60854ZM10.5627 7.45169H10.1175V7.45168L10.5627 7.45169ZM10.5628 4.8561H11.0079V4.85611L10.5628 4.8561ZM9.1344 3.28607V3.73123H8.54425L8.70637 3.16378L9.1344 3.28607ZM10.3414 8.36945C10.1774 8.36945 10.0311 8.32407 9.90965 8.25895L10.3304 7.47432C10.3361 7.4774 10.3398 7.47858 10.3412 7.47897C10.3425 7.47931 10.3423 7.47914 10.3414 7.47914V8.36945ZM10.5652 7.86663V7.86758H9.67485V7.86663H10.5652ZM10.5652 7.86758C10.5652 8.11175 10.4693 8.34411 10.296 8.51699L9.66729 7.88662C9.67047 7.88344 9.67205 7.88072 9.67297 7.8785C9.67389 7.87627 9.67485 7.87284 9.67485 7.86758H10.5652ZM10.2964 8.51658C10.1237 8.68933 9.89172 8.78532 9.64742 8.78532V7.89501C9.65253 7.89501 9.65589 7.89408 9.65817 7.89314C9.66045 7.89219 9.6634 7.89051 9.66688 7.88703L10.2964 8.51658ZM9.64742 8.78532C9.48137 8.78532 9.3332 8.73886 9.21035 8.67196L9.63614 7.89007C9.64194 7.89322 9.64561 7.89442 9.64707 7.89482C9.64832 7.89516 9.64822 7.89501 9.64742 7.89501V8.78532ZM9.86764 8.30699C9.85483 8.5261 9.76595 8.73861 9.60265 8.90208L8.97278 8.27286C8.97443 8.27121 8.97539 8.26975 8.97619 8.26791C8.97707 8.26591 8.97845 8.26183 8.97885 8.25503L9.86764 8.30699ZM9.60249 8.90224C9.42971 9.07502 9.19775 9.17099 8.95341 9.17099V8.28067C8.95859 8.28067 8.96198 8.27973 8.96426 8.27879C8.96653 8.27785 8.96947 8.27617 8.97294 8.2727L9.60249 8.90224ZM8.95341 9.17099C8.46196 9.17099 8.0676 8.78527 8.03921 8.30733L8.92796 8.25454C8.92841 8.26211 8.9315 8.26875 8.93698 8.27398C8.93966 8.27653 8.94237 8.27817 8.94473 8.27913C8.9468 8.27998 8.94943 8.28067 8.95341 8.28067V9.17099ZM8.69524 8.67255C8.55145 8.75027 8.38097 8.79508 8.19885 8.78338L8.25593 7.8949C8.25593 7.8949 8.25688 7.89499 8.25923 7.89445C8.26174 7.89386 8.2661 7.89247 8.27193 7.88932L8.69524 8.67255ZM8.19826 8.78334C7.70399 8.75093 7.34167 8.33059 7.34167 7.85302H8.23198C8.23198 7.86808 8.23744 7.87967 8.24429 7.88723C8.25097 7.89459 8.2555 7.89487 8.25652 7.89494L8.19826 8.78334ZM7.34167 7.85302V5.72741H8.23198V7.85302H7.34167ZM8.17236 5.94995L7.93032 6.36928L7.15924 5.9242L7.40128 5.50488L8.17236 5.94995ZM7.93072 6.36857C7.75871 6.66783 7.43853 6.85186 7.09423 6.85186V5.96154C7.12152 5.96154 7.14647 5.94641 7.15884 5.9249L7.93072 6.36857ZM7.09423 6.85186C6.92588 6.85186 6.76017 6.80771 6.61373 6.7238L7.05637 5.95132C7.06834 5.95818 7.08149 5.96154 7.09423 5.96154V6.85186ZM6.61178 6.72268C6.41192 6.60681 6.26645 6.41825 6.20644 6.19367L7.06658 5.96386C7.06618 5.96234 7.06507 5.95965 7.06292 5.95686C7.0608 5.95409 7.05883 5.95274 7.05832 5.95244L6.61178 6.72268ZM6.20658 6.19417C6.14634 5.96976 6.17788 5.73308 6.29407 5.53241L7.06454 5.97854C7.06517 5.97744 7.06629 5.9749 7.06676 5.9713C7.06724 5.9677 7.06684 5.96482 7.06645 5.96336L6.20658 6.19417ZM6.6793 5.31032C6.46094 5.36756 6.29749 5.5266 6.29627 5.52865C6.29587 5.52934 6.29526 5.53037 6.29507 5.5307C6.29496 5.53089 6.29477 5.53121 6.2947 5.53132C6.29466 5.53139 6.29458 5.53153 6.29456 5.53156C6.2945 5.53167 6.29452 5.53164 6.29469 5.53135C6.29499 5.53083 6.2955 5.52995 6.29624 5.52867C6.2977 5.52614 6.29989 5.52234 6.3028 5.51732C6.30859 5.50729 6.31711 5.49255 6.32798 5.47372C6.34973 5.43608 6.38084 5.38221 6.41834 5.31727C6.49334 5.18742 6.59383 5.01339 6.69582 4.83673C6.90016 4.48282 7.10966 4.11989 7.13338 4.07852L7.9057 4.52145C7.88112 4.56431 7.67053 4.92913 7.46685 5.2819C7.36484 5.45858 7.26433 5.63264 7.18932 5.76252C7.15182 5.82746 7.12068 5.88137 7.09892 5.91905C7.08804 5.93789 7.07949 5.95269 7.07365 5.96278C7.07074 5.96783 7.06848 5.97174 7.06693 5.9744C7.06617 5.97572 7.06554 5.97681 7.06508 5.97761C7.06486 5.97798 7.0646 5.97844 7.06434 5.97888C7.06425 5.97905 7.06396 5.97954 7.06362 5.98012C7.0634 5.98049 7.06278 5.98156 7.06236 5.98226C7.06112 5.98434 6.89767 6.14339 6.6793 6.20063V5.31032ZM7.11411 4.11616C7.11901 4.10535 7.13454 4.07051 7.14882 4.0384L7.96231 4.40017C7.94875 4.43067 7.93155 4.46929 7.92497 4.48381L7.11411 4.11616ZM7.14882 4.03839C7.15501 4.02448 7.16186 4.0067 7.17163 3.97913L8.01077 4.27663C7.99868 4.31073 7.98271 4.35431 7.96231 4.40018L7.14882 4.03839ZM7.17159 3.97925C7.47309 3.12806 8.23197 2.58978 9.1344 2.58978V3.48009C8.6106 3.48009 8.18691 3.77936 8.01081 4.27651L7.17159 3.97925ZM9.1344 2.58978C10.3395 2.58978 11.259 3.64065 11.259 4.85604H10.3687C10.3687 4.06309 9.78133 3.48009 9.1344 3.48009V2.58978ZM11.259 4.85602L11.2591 7.45162L10.3687 7.45165L10.3687 4.85605L11.259 4.85602ZM11.2591 7.45163C11.2591 7.69575 11.1633 7.92758 10.9908 8.10042L10.3606 7.47146C10.3642 7.46793 10.3659 7.46494 10.3668 7.4626C10.3678 7.46026 10.3687 7.45682 10.3687 7.45163H11.2591ZM10.9905 8.10071C10.8177 8.27352 10.5857 8.36946 10.3413 8.36946V7.47914C10.3466 7.47914 10.35 7.47819 10.3523 7.47725C10.3545 7.47631 10.3575 7.47464 10.3609 7.47117L10.9905 8.10071ZM10.108 7.54518L10.108 7.54517L10.5747 8.30341L10.5746 8.30342L10.108 7.54518ZM9.13441 3.7312C8.71117 3.7312 8.39023 3.95761 8.24749 4.36051L7.40829 4.06321C7.6763 3.30669 8.33214 2.84089 9.13441 2.84089V3.7312ZM8.24715 4.36147C8.2331 4.40085 8.21485 4.45058 8.19178 4.5024L7.37842 4.14031C7.38729 4.12039 7.39641 4.0965 7.40863 4.06225L8.24715 4.36147ZM8.19167 4.50264C8.17129 4.54836 8.15421 4.58697 8.14114 4.61312C8.13303 4.62935 8.1199 4.65437 8.10085 4.68208C8.08156 4.71015 8.06249 4.73133 8.06094 4.7331L7.39049 4.14731C7.39154 4.14611 7.39119 4.1465 7.39067 4.14711C7.38999 4.1479 7.38826 4.14992 7.38599 4.15269C7.38092 4.15887 7.37428 4.16739 7.36712 4.17781C7.3532 4.19807 7.34541 4.21379 7.34472 4.21517C7.34421 4.21618 7.34453 4.21558 7.34604 4.21234C7.34751 4.2092 7.34958 4.20469 7.35256 4.19811C7.35864 4.18467 7.36673 4.16654 7.37853 4.14008L8.19167 4.50264ZM7.43475 4.77711L7.43302 4.77562L8.01495 4.10181L8.01668 4.1033L7.43475 4.77711ZM8.11732 4.64717C8.04765 4.77863 7.84875 5.12288 7.28222 6.10379L6.51125 5.65851C7.08574 4.66383 7.27101 4.3428 7.33065 4.23026L8.11732 4.64717ZM7.28203 6.10411C7.31765 6.04255 7.32758 5.96829 7.30926 5.89935L6.44882 6.12803C6.40658 5.96911 6.42894 5.80077 6.51144 5.65819L7.28203 6.10411ZM7.30889 5.89796C7.29057 5.82992 7.24555 5.77042 7.18293 5.73427L6.73781 6.50533C6.59481 6.42277 6.49173 6.28744 6.44919 6.12942L7.30889 5.89796ZM7.1821 5.73379C7.13142 5.70469 7.08214 5.70488 7.04811 5.71404C7.01421 5.72317 6.97074 5.74789 6.94099 5.79973L7.71316 6.24291C7.51915 6.58094 7.07577 6.69945 6.73865 6.50581L7.1821 5.73379ZM6.9416 5.79867L7.41819 4.97354L8.18914 5.41883L7.71255 6.24397L6.9416 5.79867ZM7.41846 4.97307C7.54704 4.75108 7.80949 4.63999 8.06124 4.70813L7.82864 5.56752C7.96995 5.60576 8.11724 5.54297 8.18887 5.4193L7.41846 4.97307ZM8.06014 4.70783C8.30987 4.77474 8.48315 5.00105 8.48315 5.25911H7.59284C7.59284 5.40359 7.68981 5.53033 7.82974 5.56781L8.06014 4.70783ZM8.48315 5.25911V7.8531H7.59284V5.25911H8.48315ZM8.48315 7.8531C8.48315 7.80237 8.46436 7.75626 8.43351 7.72097C8.40271 7.68573 8.34836 7.64935 8.27308 7.6444L8.21461 8.53279C7.83987 8.50813 7.59284 8.18169 7.59284 7.8531H8.48315ZM8.26736 7.64406C8.21476 7.64128 8.15052 7.66054 8.10169 7.70928L8.73068 8.33938C8.59014 8.47968 8.40382 8.54283 8.22034 8.53313L8.26736 7.64406ZM8.10141 7.70956C8.05917 7.7518 8.03569 7.80969 8.03569 7.86772H8.926C8.926 8.04453 8.85658 8.21348 8.73096 8.3391L8.10141 7.70956ZM8.03569 7.86772V6.17122H8.926V7.86772H8.03569ZM8.03569 6.17122C8.03569 5.85599 8.29123 5.60045 8.60646 5.60045V6.49076C8.78294 6.49076 8.926 6.3477 8.926 6.17122H8.03569ZM8.60646 5.60045C8.92151 5.60045 9.17723 5.85574 9.17723 6.17122H8.28692C8.28692 6.3478 8.43016 6.49076 8.60646 6.49076V5.60045ZM9.17723 6.17124L9.17715 8.25335L8.28684 8.25332L8.28692 6.1712L9.17723 6.17124ZM9.17715 8.25334C9.17715 8.12956 9.07719 8.0296 8.95342 8.0296V8.91991C8.58549 8.91991 8.28684 8.62127 8.28684 8.25334H9.17715ZM8.95342 8.0296C8.89548 8.0296 8.83788 8.05295 8.79572 8.09503L9.42466 8.72518C9.29896 8.85063 9.12997 8.91991 8.95342 8.91991V8.0296ZM8.79512 8.09563C8.75303 8.13779 8.72969 8.1954 8.72969 8.25334H9.62C9.62 8.42989 9.55072 8.59888 9.42526 8.72458L8.79512 8.09563ZM8.72969 8.25334V6.17122H9.62V8.25334H8.72969ZM8.72969 6.17122C8.72969 5.85618 8.98497 5.60045 9.30046 5.60045V6.49076C9.47704 6.49076 9.62 6.34751 9.62 6.17122H8.72969ZM9.30046 5.60045C9.61551 5.60045 9.87123 5.85573 9.87123 6.17122H8.98092C8.98092 6.3478 9.12417 6.49076 9.30046 6.49076V5.60045ZM9.87123 6.17124L9.87116 7.84823L8.98084 7.84819L8.98092 6.1712L9.87123 6.17124ZM9.87116 7.84821V7.86772H8.98084V7.84821H9.87116ZM9.87116 7.86772C9.87116 7.74365 9.77098 7.6439 9.6475 7.6439V8.53421C9.27971 8.53421 8.98084 8.23579 8.98084 7.86772H9.87116ZM9.6475 7.6439C9.58835 7.6439 9.53108 7.66796 9.49009 7.7088L10.1185 8.33952C9.99344 8.46406 9.82511 8.53421 9.6475 8.53421V7.6439ZM9.48979 7.70909C9.44721 7.7516 9.42377 7.80967 9.42377 7.86763H10.3141C10.3141 8.04437 10.2447 8.21351 10.1187 8.33923L9.48979 7.70909ZM9.42377 7.86763V6.17113H10.3141V7.86763H9.42377ZM9.42377 6.17113C9.42377 5.85608 9.67906 5.60036 9.99454 5.60036V6.49067C10.1711 6.49067 10.3141 6.34743 10.3141 6.17113H9.42377ZM9.99454 5.60036C10.3096 5.60036 10.5653 5.85564 10.5653 6.17113H9.675C9.675 6.34771 9.81825 6.49067 9.99454 6.49067V5.60036ZM10.5653 6.17119L10.5652 7.45175L9.67485 7.45164L9.675 6.17108L10.5653 6.17119ZM10.5652 7.45169C10.5652 7.32821 10.4654 7.22804 10.3413 7.22804V8.11835C9.97329 8.11835 9.67485 7.81949 9.67485 7.45169H10.5652ZM10.3413 7.22804C10.2829 7.22804 10.2253 7.25168 10.1835 7.29347L10.8124 7.92361C10.6872 8.04862 10.5185 8.11835 10.3413 8.11835V7.22804ZM10.1832 7.29377C10.1408 7.33616 10.1175 7.39401 10.1175 7.45169H11.0078C11.0078 7.628 10.9388 7.79723 10.8127 7.92331L10.1832 7.29377ZM10.1175 7.45168L10.1176 4.85608L11.0079 4.85611L11.0078 7.45171L10.1175 7.45168ZM10.1176 4.8561C10.1176 4.19575 9.63747 3.73123 9.1344 3.73123V2.84092C10.2066 2.84092 11.0079 3.78519 11.0079 4.8561H10.1176ZM8.70637 3.16378L8.70638 3.16375L9.56244 3.40834L9.56243 3.40837L8.70637 3.16378Z" fill="#4CAF4F" mask="url(#path-1-inside-1_212_1413)"/>
<path d="M4.88232 8.78235L4.85693 8.76868C4.8509 8.77954 4.83486 8.80876 4.81104 8.85168C4.81994 8.85615 4.8284 8.86099 4.8374 8.86438C4.85225 8.83763 4.86691 8.81012 4.88232 8.78235Z" fill="#4CAF4F" stroke="#4CAF4F" stroke-width="0.445155"/>
<path d="M9.46533 10.6279L9.57861 10.4395L9.47998 10.6035L9.46533 10.6279Z" fill="#4CAF4F" stroke="#4CAF4F" stroke-width="0.445155"/>
</svg>
