<svg xmlns="http://www.w3.org/2000/svg"  viewBox="0 0 48 48" width="48px" height="48px"><linearGradient id="SVGID_1_" x1="37.081" x2="10.918" y1="10.918" y2="37.081" gradientUnits="userSpaceOnUse"><stop offset="0" stop-color="#fe60c1"/><stop offset=".033" stop-color="#fe6ac5"/><stop offset=".197" stop-color="#fe97d7"/><stop offset=".362" stop-color="#ffbde5"/><stop offset=".525" stop-color="#ffdaf0"/><stop offset=".687" stop-color="#ffeef9"/><stop offset=".846" stop-color="#fffbfd"/><stop offset="1" stop-color="#fff"/></linearGradient><circle cx="24" cy="24" r="18.5" fill="url(#SVGID_1_)"/><path fill="none" stroke="#fa2aab" stroke-linecap="round" stroke-linejoin="round" stroke-miterlimit="10" stroke-width="3" d="M37.088,10.925C30.338,17.467,21.142,21.5,11,21.5c-1.784,0-3.537-0.133-5.255-0.374"/><path fill="none" stroke="#fa2aab" stroke-linecap="round" stroke-linejoin="round" stroke-miterlimit="10" stroke-width="3" d="M28.212,25.198c1.938-0.457,3.96-0.698,6.038-0.698c2.849,0,5.59,0.46,8.159,1.3"/><path fill="none" stroke="#fa2aab" stroke-linecap="round" stroke-linejoin="round" stroke-miterlimit="10" stroke-width="3" d="M11.519,37.627c2.416-4.176,5.947-7.625,10.187-9.939"/><path fill="none" stroke="#fa2aab" stroke-linecap="round" stroke-linejoin="round" stroke-miterlimit="10" stroke-width="3" d="M32.609,40.368c-2.377-12.516-7.741-23.964-15.327-33.591"/><path fill="none" stroke="#fa2aab" stroke-linecap="round" stroke-linejoin="round" stroke-miterlimit="10" stroke-width="3" d="M42.428,22.351C42.476,22.895,42.5,23.444,42.5,24c0,10.217-8.283,18.5-18.5,18.5	c-8.232,0-15.208-5.376-17.608-12.809"/><path fill="none" stroke="#fa2aab" stroke-linecap="round" stroke-linejoin="round" stroke-miterlimit="10" stroke-width="3" d="M5.722,21.122C7.105,12.272,14.762,5.5,24,5.5c7.343,0,13.687,4.278,16.675,10.478"/></svg>