<svg width="47" height="40" viewBox="0 0 47 40" fill="none" xmlns="http://www.w3.org/2000/svg">
<path d="M46.041 27.3734C46.041 34.2931 40.4314 39.9026 33.5117 39.9026L14.7179 39.9026C12.7957 39.9026 11.2375 38.3444 11.2375 36.4223L11.2375 12.7559C11.2375 8.91165 14.3539 5.79524 18.1982 5.79524L42.5606 5.79525C44.4828 5.79525 46.041 7.35345 46.041 9.27559L46.041 27.3734Z" fill="#E8F5E9"/>
<path d="M17.4952 7.88348C15.0093 7.88348 12.9856 9.92567 12.9856 12.4221C12.9856 14.0014 13.7966 15.3958 15.0212 16.2086C13.5421 16.7031 12.2623 17.6274 11.3237 18.8366C10.8047 18.4374 10.2248 18.1164 9.5997 17.8864C10.5477 17.1826 11.1671 16.0521 11.1671 14.7815C11.1671 12.6642 9.45474 10.931 7.3503 10.931C5.24586 10.931 3.53348 12.6642 3.53348 14.7815C3.53348 16.0528 4.15346 17.1838 5.10221 17.8876C2.59039 18.8145 0.796478 21.2412 0.796478 24.0972V26.1034C0.796735 26.2563 0.857911 26.4029 0.966381 26.5106C1.07485 26.6185 1.22162 26.6787 1.37456 26.6782H10.1763C10.1977 26.6805 10.219 26.6817 10.2403 26.6815H24.7505C24.7718 26.6817 24.7934 26.6805 24.8145 26.6782H33.6169C33.9334 26.6769 34.1896 26.4201 34.1904 26.1034V24.0972C34.1904 21.2412 32.3996 18.8145 29.8891 17.8873C30.8378 17.1838 31.4578 16.0526 31.4578 14.7813C31.4578 12.664 29.7454 10.9307 27.641 10.9307C25.5366 10.9307 23.8242 12.664 23.8242 14.7813C23.8242 16.0518 24.4439 17.1825 25.3918 17.8861C24.7654 18.1167 24.1853 18.4387 23.6656 18.8389C22.7274 17.629 21.4493 16.7034 19.9704 16.2086C21.1946 15.3958 22.0059 14.0014 22.0059 12.4221C22.0059 9.92567 19.9811 7.88348 17.4953 7.88348H17.4952ZM17.4952 9.03503C19.3544 9.03503 20.8531 10.5439 20.8531 12.4221C20.8531 14.2856 19.3777 15.7798 17.5391 15.8038C17.5245 15.8038 17.5101 15.8017 17.4952 15.8017C17.4803 15.8017 17.4661 15.8038 17.4512 15.8038C15.6126 15.7801 14.1382 14.2857 14.1382 12.4221C14.1382 10.5436 15.6357 9.03503 17.4949 9.03503H17.4952ZM7.35036 12.0825C8.82553 12.0825 10.0156 13.2798 10.0156 14.7815C10.0156 16.2731 8.84093 17.4652 7.37965 17.4814C7.36988 17.4814 7.36037 17.4804 7.35034 17.4804C7.34058 17.4804 7.33107 17.4814 7.32104 17.4814C5.85976 17.4652 4.68505 16.2728 4.68505 14.7815C4.68505 13.2798 5.87516 12.0825 7.35032 12.0825H7.35036ZM27.6406 12.0825C29.1158 12.0825 30.3059 13.2798 30.3059 14.7815C30.3059 16.2731 29.1312 17.4652 27.6699 17.4814C27.6602 17.4814 27.6506 17.4804 27.6406 17.4804C27.6308 17.4804 27.6213 17.4814 27.6113 17.4814C26.15 17.4652 24.9753 16.2728 24.9753 14.7815C24.9753 13.2798 26.1654 12.0825 27.6406 12.0825H27.6406ZM17.4511 16.9552C17.4657 16.9555 17.4801 16.9573 17.495 16.9573C17.5097 16.9573 17.5241 16.9552 17.539 16.9552C21.2262 16.9789 24.1772 19.9552 24.1772 23.6809L24.1769 25.5296H10.8137V23.6809C10.8137 19.9549 13.7638 16.9789 17.4506 16.9552H17.4511ZM7.30628 18.6343C7.32093 18.6345 7.33532 18.6363 7.35023 18.6363C7.36514 18.6363 7.37928 18.6343 7.39419 18.6343C8.64134 18.6443 9.77953 19.0743 10.6858 19.7938C10.0373 20.9412 9.66227 22.2657 9.66227 23.6813V25.5255H1.94756V24.0971C1.94756 21.0692 4.3283 18.6579 7.30614 18.634L7.30628 18.6343ZM27.5965 18.6343C27.6115 18.6345 27.6256 18.6363 27.6405 18.6363C27.6554 18.6363 27.6695 18.6343 27.6845 18.6343C30.6623 18.6579 33.043 21.0695 33.043 24.0974V25.5255H25.3244L25.3241 23.6813C25.3241 22.2665 24.9501 20.943 24.3029 19.7958C25.2094 19.0753 26.3484 18.6443 27.5966 18.6343H27.5965Z" fill="#103E13"/>
</svg>
